<svg width="400" height="200" viewBox="0 0 400 200" fill="none" xmlns="http://www.w3.org/2000/svg">
    <rect width="400" height="200" fill="#5E6368" />
    <g filter="url(#filter0_i_7_34)">
        <path d="M127.287 94.3636V106H125.179V94.3636H127.287ZM129.479 106V97.2727H131.445V98.7557H131.547C131.729 98.2557 132.03 97.8655 132.45 97.5852C132.871 97.3011 133.373 97.1591 133.956 97.1591C134.547 97.1591 135.045 97.303 135.45 97.5909C135.859 97.875 136.147 98.2633 136.314 98.7557H136.405C136.598 98.2708 136.924 97.8845 137.382 97.5966C137.844 97.3049 138.392 97.1591 139.024 97.1591C139.827 97.1591 140.482 97.4129 140.99 97.9205C141.498 98.428 141.751 99.1686 141.751 100.142V106H139.689V100.46C139.689 99.9186 139.545 99.5227 139.257 99.2727C138.969 99.0189 138.617 98.892 138.2 98.892C137.704 98.892 137.316 99.0473 137.036 99.358C136.759 99.6648 136.621 100.064 136.621 100.557V106H134.604V100.375C134.604 99.9242 134.467 99.5644 134.195 99.2955C133.926 99.0265 133.573 98.892 133.138 98.892C132.842 98.892 132.573 98.9678 132.331 99.1193C132.089 99.267 131.895 99.4773 131.751 99.75C131.607 100.019 131.536 100.333 131.536 100.693V106H129.479ZM146.349 106.176C145.796 106.176 145.298 106.078 144.855 105.881C144.416 105.68 144.067 105.384 143.81 104.994C143.556 104.604 143.429 104.123 143.429 103.551C143.429 103.059 143.52 102.652 143.702 102.33C143.884 102.008 144.132 101.75 144.446 101.557C144.76 101.364 145.115 101.218 145.509 101.119C145.906 101.017 146.317 100.943 146.741 100.898C147.253 100.845 147.668 100.797 147.986 100.756C148.304 100.71 148.535 100.642 148.679 100.551C148.827 100.456 148.901 100.311 148.901 100.114V100.08C148.901 99.6515 148.774 99.3201 148.52 99.0852C148.266 98.8504 147.901 98.733 147.423 98.733C146.92 98.733 146.52 98.8428 146.224 99.0625C145.933 99.2822 145.736 99.5417 145.634 99.8409L143.713 99.5682C143.865 99.0379 144.115 98.5947 144.463 98.2386C144.812 97.8788 145.238 97.6098 145.741 97.4318C146.245 97.25 146.802 97.1591 147.412 97.1591C147.832 97.1591 148.251 97.2083 148.668 97.3068C149.084 97.4053 149.465 97.5682 149.81 97.7955C150.154 98.0189 150.431 98.3239 150.639 98.7102C150.851 99.0966 150.957 99.5795 150.957 100.159V106H148.98V104.801H148.912C148.787 105.044 148.611 105.271 148.384 105.483C148.16 105.691 147.878 105.86 147.537 105.989C147.2 106.114 146.804 106.176 146.349 106.176ZM146.884 104.665C147.296 104.665 147.654 104.583 147.957 104.42C148.26 104.254 148.493 104.034 148.656 103.761C148.823 103.489 148.906 103.191 148.906 102.869V101.841C148.842 101.894 148.732 101.943 148.577 101.989C148.425 102.034 148.255 102.074 148.065 102.108C147.876 102.142 147.688 102.172 147.503 102.199C147.317 102.225 147.156 102.248 147.02 102.267C146.713 102.309 146.438 102.377 146.196 102.472C145.954 102.566 145.762 102.699 145.622 102.869C145.482 103.036 145.412 103.252 145.412 103.517C145.412 103.896 145.55 104.182 145.827 104.375C146.103 104.568 146.455 104.665 146.884 104.665ZM156.821 109.455C156.082 109.455 155.448 109.354 154.918 109.153C154.387 108.956 153.961 108.691 153.639 108.358C153.317 108.025 153.094 107.655 152.969 107.25L154.821 106.801C154.904 106.972 155.026 107.14 155.185 107.307C155.344 107.477 155.558 107.617 155.827 107.727C156.099 107.841 156.442 107.898 156.855 107.898C157.438 107.898 157.921 107.756 158.304 107.472C158.687 107.191 158.878 106.729 158.878 106.085V104.432H158.776C158.67 104.644 158.514 104.862 158.31 105.085C158.109 105.309 157.842 105.496 157.509 105.648C157.179 105.799 156.764 105.875 156.264 105.875C155.594 105.875 154.986 105.718 154.44 105.403C153.899 105.085 153.467 104.612 153.145 103.983C152.827 103.35 152.668 102.559 152.668 101.608C152.668 100.65 152.827 99.8409 153.145 99.1818C153.467 98.5189 153.901 98.017 154.446 97.6761C154.991 97.3314 155.599 97.1591 156.27 97.1591C156.781 97.1591 157.202 97.2462 157.531 97.4205C157.865 97.5909 158.13 97.7973 158.327 98.0398C158.524 98.2784 158.673 98.5038 158.776 98.7159H158.889V97.2727H160.918V106.142C160.918 106.888 160.74 107.506 160.384 107.994C160.027 108.483 159.541 108.848 158.923 109.091C158.306 109.333 157.605 109.455 156.821 109.455ZM156.838 104.261C157.274 104.261 157.645 104.155 157.952 103.943C158.259 103.731 158.491 103.426 158.651 103.028C158.81 102.631 158.889 102.153 158.889 101.597C158.889 101.047 158.81 100.566 158.651 100.153C158.495 99.7405 158.264 99.4205 157.957 99.1932C157.654 98.9621 157.281 98.8466 156.838 98.8466C156.38 98.8466 155.997 98.9659 155.69 99.2045C155.384 99.4432 155.152 99.7708 154.997 100.188C154.842 100.6 154.764 101.07 154.764 101.597C154.764 102.131 154.842 102.598 154.997 103C155.156 103.398 155.389 103.708 155.696 103.932C156.007 104.152 156.387 104.261 156.838 104.261ZM166.889 106.17C166.014 106.17 165.259 105.989 164.622 105.625C163.99 105.258 163.503 104.739 163.162 104.068C162.821 103.394 162.651 102.6 162.651 101.688C162.651 100.79 162.821 100.002 163.162 99.3239C163.507 98.642 163.988 98.1117 164.605 97.733C165.223 97.3504 165.948 97.1591 166.781 97.1591C167.319 97.1591 167.827 97.2462 168.304 97.4205C168.785 97.5909 169.209 97.8561 169.577 98.2159C169.948 98.5758 170.24 99.0341 170.452 99.5909C170.664 100.144 170.77 100.803 170.77 101.568V102.199H163.616V100.812H168.798C168.795 100.419 168.709 100.068 168.543 99.7614C168.376 99.4508 168.143 99.2064 167.844 99.0284C167.548 98.8504 167.204 98.7614 166.81 98.7614C166.389 98.7614 166.02 98.8636 165.702 99.0682C165.384 99.2689 165.135 99.5341 164.957 99.8636C164.783 100.189 164.694 100.547 164.69 100.938V102.148C164.69 102.655 164.783 103.091 164.969 103.455C165.154 103.814 165.414 104.091 165.747 104.284C166.08 104.473 166.471 104.568 166.918 104.568C167.217 104.568 167.488 104.527 167.73 104.443C167.973 104.356 168.183 104.229 168.361 104.062C168.539 103.896 168.673 103.689 168.764 103.443L170.685 103.659C170.563 104.167 170.332 104.61 169.991 104.989C169.654 105.364 169.223 105.655 168.696 105.864C168.17 106.068 167.567 106.17 166.889 106.17ZM186.132 94.3636V106H184.257L178.774 98.0739H178.678V106H176.57V94.3636H178.456L183.933 102.295H184.036V94.3636H186.132ZM192.145 106.17C191.293 106.17 190.554 105.983 189.929 105.608C189.304 105.233 188.819 104.708 188.474 104.034C188.134 103.36 187.963 102.572 187.963 101.67C187.963 100.769 188.134 99.9792 188.474 99.3011C188.819 98.6231 189.304 98.0966 189.929 97.7216C190.554 97.3466 191.293 97.1591 192.145 97.1591C192.997 97.1591 193.736 97.3466 194.361 97.7216C194.986 98.0966 195.469 98.6231 195.81 99.3011C196.154 99.9792 196.327 100.769 196.327 101.67C196.327 102.572 196.154 103.36 195.81 104.034C195.469 104.708 194.986 105.233 194.361 105.608C193.736 105.983 192.997 106.17 192.145 106.17ZM192.156 104.523C192.618 104.523 193.005 104.396 193.315 104.142C193.626 103.884 193.857 103.54 194.009 103.108C194.164 102.676 194.241 102.195 194.241 101.665C194.241 101.131 194.164 100.648 194.009 100.216C193.857 99.7803 193.626 99.4337 193.315 99.1761C193.005 98.9186 192.618 98.7898 192.156 98.7898C191.683 98.7898 191.289 98.9186 190.974 99.1761C190.664 99.4337 190.431 99.7803 190.276 100.216C190.124 100.648 190.048 101.131 190.048 101.665C190.048 102.195 190.124 102.676 190.276 103.108C190.431 103.54 190.664 103.884 190.974 104.142C191.289 104.396 191.683 104.523 192.156 104.523ZM202.43 97.2727V98.8636H197.413V97.2727H202.43ZM198.652 95.1818H200.709V103.375C200.709 103.652 200.75 103.864 200.834 104.011C200.921 104.155 201.035 104.254 201.175 104.307C201.315 104.36 201.47 104.386 201.641 104.386C201.769 104.386 201.887 104.377 201.993 104.358C202.103 104.339 202.186 104.322 202.243 104.307L202.589 105.915C202.48 105.953 202.322 105.994 202.118 106.04C201.917 106.085 201.671 106.112 201.379 106.119C200.864 106.134 200.4 106.057 199.987 105.886C199.574 105.712 199.247 105.443 199.004 105.08C198.766 104.716 198.648 104.261 198.652 103.716V95.1818ZM209.705 106H207.455L211.551 94.3636H214.153L218.256 106H216.006L212.898 96.75H212.807L209.705 106ZM209.778 101.438H215.915V103.131H209.778V101.438ZM226.399 97.2727L223.291 106H221.018L217.911 97.2727H220.104L222.109 103.756H222.2L224.212 97.2727H226.399ZM230.084 106.176C229.531 106.176 229.033 106.078 228.589 105.881C228.15 105.68 227.802 105.384 227.544 104.994C227.29 104.604 227.163 104.123 227.163 103.551C227.163 103.059 227.254 102.652 227.436 102.33C227.618 102.008 227.866 101.75 228.18 101.557C228.495 101.364 228.849 101.218 229.243 101.119C229.641 101.017 230.052 100.943 230.476 100.898C230.987 100.845 231.402 100.797 231.72 100.756C232.038 100.71 232.269 100.642 232.413 100.551C232.561 100.456 232.635 100.311 232.635 100.114V100.08C232.635 99.6515 232.508 99.3201 232.254 99.0852C232 98.8504 231.635 98.733 231.158 98.733C230.654 98.733 230.254 98.8428 229.959 99.0625C229.667 99.2822 229.47 99.5417 229.368 99.8409L227.447 99.5682C227.599 99.0379 227.849 98.5947 228.197 98.2386C228.546 97.8788 228.972 97.6098 229.476 97.4318C229.98 97.25 230.536 97.1591 231.146 97.1591C231.567 97.1591 231.985 97.2083 232.402 97.3068C232.819 97.4053 233.199 97.5682 233.544 97.7955C233.889 98.0189 234.165 98.3239 234.374 98.7102C234.586 99.0966 234.692 99.5795 234.692 100.159V106H232.714V104.801H232.646C232.521 105.044 232.345 105.271 232.118 105.483C231.894 105.691 231.612 105.86 231.271 105.989C230.934 106.114 230.538 106.176 230.084 106.176ZM230.618 104.665C231.031 104.665 231.389 104.583 231.692 104.42C231.995 104.254 232.228 104.034 232.391 103.761C232.557 103.489 232.641 103.191 232.641 102.869V101.841C232.576 101.894 232.466 101.943 232.311 101.989C232.16 102.034 231.989 102.074 231.8 102.108C231.61 102.142 231.423 102.172 231.237 102.199C231.052 102.225 230.891 102.248 230.754 102.267C230.447 102.309 230.173 102.377 229.93 102.472C229.688 102.566 229.497 102.699 229.357 102.869C229.216 103.036 229.146 103.252 229.146 103.517C229.146 103.896 229.285 104.182 229.561 104.375C229.838 104.568 230.19 104.665 230.618 104.665ZM236.76 106V97.2727H238.817V106H236.76ZM237.794 96.0341C237.468 96.0341 237.188 95.9261 236.953 95.7102C236.718 95.4905 236.601 95.2273 236.601 94.9205C236.601 94.6098 236.718 94.3466 236.953 94.1307C237.188 93.911 237.468 93.8011 237.794 93.8011C238.124 93.8011 238.404 93.911 238.635 94.1307C238.87 94.3466 238.987 94.6098 238.987 94.9205C238.987 95.2273 238.87 95.4905 238.635 95.7102C238.404 95.9261 238.124 96.0341 237.794 96.0341ZM242.989 94.3636V106H240.932V94.3636H242.989ZM247.615 106.176C247.062 106.176 246.564 106.078 246.121 105.881C245.681 105.68 245.333 105.384 245.075 104.994C244.821 104.604 244.695 104.123 244.695 103.551C244.695 103.059 244.786 102.652 244.967 102.33C245.149 102.008 245.397 101.75 245.712 101.557C246.026 101.364 246.38 101.218 246.774 101.119C247.172 101.017 247.583 100.943 248.007 100.898C248.518 100.845 248.933 100.797 249.251 100.756C249.57 100.71 249.801 100.642 249.945 100.551C250.092 100.456 250.166 100.311 250.166 100.114V100.08C250.166 99.6515 250.039 99.3201 249.786 99.0852C249.532 98.8504 249.166 98.733 248.689 98.733C248.185 98.733 247.786 98.8428 247.49 99.0625C247.198 99.2822 247.001 99.5417 246.899 99.8409L244.979 99.5682C245.13 99.0379 245.38 98.5947 245.729 98.2386C246.077 97.8788 246.503 97.6098 247.007 97.4318C247.511 97.25 248.068 97.1591 248.678 97.1591C249.098 97.1591 249.517 97.2083 249.933 97.3068C250.35 97.4053 250.731 97.5682 251.075 97.7955C251.42 98.0189 251.696 98.3239 251.905 98.7102C252.117 99.0966 252.223 99.5795 252.223 100.159V106H250.246V104.801H250.178C250.053 105.044 249.876 105.271 249.649 105.483C249.426 105.691 249.143 105.86 248.803 105.989C248.465 106.114 248.07 106.176 247.615 106.176ZM248.149 104.665C248.562 104.665 248.92 104.583 249.223 104.42C249.526 104.254 249.759 104.034 249.922 103.761C250.089 103.489 250.172 103.191 250.172 102.869V101.841C250.107 101.894 249.998 101.943 249.842 101.989C249.691 102.034 249.52 102.074 249.331 102.108C249.142 102.142 248.954 102.172 248.768 102.199C248.583 102.225 248.422 102.248 248.286 102.267C247.979 102.309 247.704 102.377 247.462 102.472C247.219 102.566 247.028 102.699 246.888 102.869C246.748 103.036 246.678 103.252 246.678 103.517C246.678 103.896 246.816 104.182 247.092 104.375C247.369 104.568 247.721 104.665 248.149 104.665ZM254.382 106V94.3636H256.439V98.7159H256.524C256.63 98.5038 256.78 98.2784 256.973 98.0398C257.166 97.7973 257.428 97.5909 257.757 97.4205C258.087 97.2462 258.507 97.1591 259.018 97.1591C259.693 97.1591 260.301 97.3314 260.842 97.6761C261.388 98.017 261.82 98.5227 262.138 99.1932C262.46 99.8598 262.621 100.678 262.621 101.648C262.621 102.606 262.464 103.42 262.149 104.091C261.835 104.761 261.407 105.273 260.865 105.625C260.323 105.977 259.71 106.153 259.024 106.153C258.524 106.153 258.109 106.07 257.78 105.903C257.45 105.737 257.185 105.536 256.984 105.301C256.787 105.062 256.634 104.837 256.524 104.625H256.405V106H254.382ZM256.399 101.636C256.399 102.201 256.479 102.695 256.638 103.119C256.801 103.544 257.034 103.875 257.337 104.114C257.643 104.348 258.015 104.466 258.45 104.466C258.905 104.466 259.286 104.345 259.592 104.102C259.899 103.856 260.13 103.521 260.286 103.097C260.445 102.669 260.524 102.182 260.524 101.636C260.524 101.095 260.446 100.614 260.291 100.193C260.136 99.7727 259.905 99.4432 259.598 99.2045C259.291 98.9659 258.909 98.8466 258.45 98.8466C258.011 98.8466 257.638 98.9621 257.331 99.1932C257.024 99.4242 256.791 99.7481 256.632 100.165C256.477 100.581 256.399 101.072 256.399 101.636ZM266.426 94.3636V106H264.369V94.3636H266.426ZM272.405 106.17C271.53 106.17 270.774 105.989 270.138 105.625C269.505 105.258 269.018 104.739 268.678 104.068C268.337 103.394 268.166 102.6 268.166 101.688C268.166 100.79 268.337 100.002 268.678 99.3239C269.022 98.642 269.503 98.1117 270.121 97.733C270.738 97.3504 271.464 97.1591 272.297 97.1591C272.835 97.1591 273.342 97.2462 273.82 97.4205C274.301 97.5909 274.725 97.8561 275.092 98.2159C275.464 98.5758 275.755 99.0341 275.967 99.5909C276.179 100.144 276.286 100.803 276.286 101.568V102.199H269.132V100.812H274.314C274.31 100.419 274.225 100.068 274.058 99.7614C273.892 99.4508 273.659 99.2064 273.359 99.0284C273.064 98.8504 272.719 98.7614 272.325 98.7614C271.905 98.7614 271.536 98.8636 271.217 99.0682C270.899 99.2689 270.651 99.5341 270.473 99.8636C270.299 100.189 270.21 100.547 270.206 100.938V102.148C270.206 102.655 270.299 103.091 270.484 103.455C270.67 103.814 270.929 104.091 271.263 104.284C271.596 104.473 271.986 104.568 272.433 104.568C272.732 104.568 273.003 104.527 273.246 104.443C273.488 104.356 273.698 104.229 273.876 104.062C274.054 103.896 274.189 103.689 274.28 103.443L276.2 103.659C276.079 104.167 275.848 104.61 275.507 104.989C275.17 105.364 274.738 105.655 274.212 105.864C273.685 106.068 273.083 106.17 272.405 106.17Z" fill="white" />
    </g>
    <defs>
        <filter id="filter0_i_7_34" x="125.179" y="93.8011" width="151.107" height="19.6534" filterUnits="userSpaceOnUse" color-interpolation-filters="sRGB">
            <feFlood flood-opacity="0" result="BackgroundImageFix" />
            <feBlend mode="normal" in="SourceGraphic" in2="BackgroundImageFix" result="shape" />
            <feColorMatrix in="SourceAlpha" type="matrix" values="0 0 0 0 0 0 0 0 0 0 0 0 0 0 0 0 0 0 127 0" result="hardAlpha" />
            <feOffset dy="4" />
            <feGaussianBlur stdDeviation="2" />
            <feComposite in2="hardAlpha" operator="arithmetic" k2="-1" k3="1" />
            <feColorMatrix type="matrix" values="0 0 0 0 0 0 0 0 0 0 0 0 0 0 0 0 0 0 0.25 0" />
            <feBlend mode="normal" in2="shape" result="effect1_innerShadow_7_34" />
        </filter>
    </defs>
</svg>
